<svg width="112" height="97" viewBox="0 0 112 97" fill="none" xmlns="http://www.w3.org/2000/svg">
<path d="M56.0039 18.6533C56.3776 21.2636 56.8101 23.6495 57.332 25.8281C58.9029 32.3854 61.3159 37.2841 65.4521 40.8516C69.5532 44.3885 75.1113 46.4093 82.5264 47.7305C84.132 48.0165 85.8369 48.2693 87.6465 48.5C85.8369 48.7307 84.132 48.9835 82.5264 49.2695C75.1113 50.5907 69.5532 52.6115 65.4521 56.1484C61.3159 59.7159 58.9029 64.6146 57.332 71.1719C56.8102 73.3502 56.3775 75.7358 56.0039 78.3457C55.6294 75.7355 55.1965 73.3494 54.6738 71.1709C53.1007 64.6136 50.686 59.7147 46.5488 56.1475C42.447 52.611 36.8894 50.5906 29.4746 49.2695C27.8685 48.9834 26.1627 48.7307 24.3525 48.5C26.1627 48.2693 27.8685 48.0166 29.4746 47.7305C36.8895 46.4094 42.447 44.389 46.5488 40.8525C50.686 37.2853 53.1007 32.3864 54.6738 25.8291C55.1965 23.6503 55.6293 21.2639 56.0039 18.6533Z" stroke="#8E3220" stroke-width="4"/>
</svg>
